<?xml version="1.0" standalone="no"?>
<!DOCTYPE svg PUBLIC "-//W3C//DTD SVG 20010904//EN"
 "http://www.w3.org/TR/2001/REC-SVG-20010904/DTD/svg10.dtd">
<svg version="1.0" xmlns="http://www.w3.org/2000/svg"
 width="392.000000pt" height="392.000000pt" viewBox="0 0 392.000000 392.000000"
 preserveAspectRatio="xMidYMid meet">
<metadata>
Created by potrace 1.14, written by Peter Selinger 2001-2017
</metadata>
<g transform="translate(0.000000,392.000000) scale(0.100000,-0.100000)"
fill="#000000" stroke="none">
<path d="M2608 3905 c-2 -2 -34 -6 -73 -10 -38 -4 -72 -8 -75 -10 -3 -2 -26
-6 -50 -10 -295 -42 -659 -221 -939 -462 -80 -68 -232 -225 -291 -300 -8 -10
-31 -39 -51 -63 -193 -242 -402 -621 -536 -970 -113 -294 -214 -654 -239 -850
-3 -25 -8 -58 -11 -75 -12 -72 -11 -422 2 -501 59 -355 242 -560 558 -625 86
-17 142 -18 917 -16 823 3 825 3 884 25 193 72 320 198 391 386 14 36 23 66
20 66 -2 0 -1 10 4 23 31 81 29 269 -4 430 -19 96 -109 281 -160 333 -25 25
-90 41 -134 33 -42 -8 -61 -21 -216 -141 -81 -63 -129 -97 -230 -163 -66 -43
-131 -86 -145 -95 -49 -33 -296 -148 -360 -168 -235 -74 -406 -52 -511 66 -92
103 -131 249 -132 497 -2 241 26 414 104 650 62 186 167 395 286 571 15 23 41
61 57 85 16 24 34 49 40 55 6 6 22 26 36 44 14 18 30 38 35 44 6 6 39 45 75
86 108 125 272 285 435 423 106 91 275 216 449 335 55 37 108 78 118 92 41 56
16 161 -48 200 -27 18 -47 21 -118 19 -47 -1 -87 -3 -88 -4z"/>
<path d="M3387 3378 c-305 -62 -615 -190 -886 -368 -127 -83 -172 -118 -301
-230 -293 -257 -527 -587 -650 -919 -25 -68 -66 -238 -69 -281 -6 -135 -6
-178 4 -247 28 -190 142 -313 292 -314 88 -1 200 47 303 130 24 20 53 43 63
51 21 16 92 90 127 130 50 59 66 77 75 92 6 8 27 40 47 71 108 163 203 368
323 702 94 262 160 394 289 575 33 47 63 87 66 90 3 3 33 37 68 77 76 88 143
154 213 213 29 25 60 52 68 61 9 8 49 42 89 73 39 32 72 66 72 75 -1 47 -34
50 -193 19z"/>
</g>
</svg>
